<svg version="1.1" xmlns="http://www.w3.org/2000/svg" viewBox="0 0 1137.2852172851562 761.4213256835938" width="2274.5704345703125" height="1522.8426513671875">
  <!-- svg-source:excalidraw -->
  
  <defs>
    <style>
      @font-face {
        font-family: "Virgil";
        src: url("https://excalidraw.com/Virgil.woff2");
      }
      @font-face {
        font-family: "Cascadia";
        src: url("https://excalidraw.com/Cascadia.woff2");
      }
    </style>
  </defs>
  <rect x="0" y="0" width="1137.2852172851562" height="761.4213256835938" fill="#ffffff"></rect><a href="https://pingcap.feishu.cn/wiki/wikcnrcjU8krBQITFXEoboqVXUh"><g stroke-linecap="round" transform="translate(511.9976806640625 87.27984619140625) rotate(0 37 55)"><path d="M49.39 3.07 C55.72 5.53, 63.47 13.8, 67.45 22.05 C71.43 30.3, 73.05 42.68, 73.25 52.58 C73.45 62.48, 71.86 73.01, 68.64 81.46 C65.42 89.92, 59.76 98.67, 53.93 103.33 C48.1 107.98, 40.09 110.04, 33.67 109.38 C27.25 108.72, 20.71 105.27, 15.42 99.37 C10.12 93.46, 4.24 83.29, 1.89 73.95 C-0.46 64.6, -0.11 52.89, 1.29 43.3 C2.7 33.7, 5.49 23.33, 10.31 16.36 C15.13 9.39, 23.03 3.28, 30.23 1.48 C37.44 -0.32, 49.09 4.08, 53.55 5.58 C58.02 7.08, 57.36 9.53, 57.02 10.47 M51.1 3.5 C57.19 6.35, 63.18 14.89, 67.02 22.97 C70.87 31.05, 73.65 41.79, 74.17 51.99 C74.68 62.19, 73.52 75.33, 70.12 84.17 C66.73 93.01, 59.9 100.67, 53.79 105.04 C47.68 109.4, 40.27 111.75, 33.48 110.37 C26.68 109, 18.38 103.24, 13.02 96.78 C7.66 90.33, 3.32 80.56, 1.32 71.63 C-0.68 62.7, -0.91 52.55, 1.03 43.21 C2.97 33.87, 8.19 22.66, 12.96 15.61 C17.73 8.56, 23.31 2.7, 29.65 0.92 C35.99 -0.85, 47.41 4.29, 51.01 4.96 C54.61 5.62, 51.73 4.08, 51.25 4.9" stroke="#000000" stroke-width="1" fill="none"></path></g></a><g transform="translate(516.9976806640625 104.77984619140625) rotate(0 32 37.5)"><text x="32" y="18" font-family="Virgil, Segoe UI Emoji" font-size="20px" fill="#000000" text-anchor="middle" style="white-space: pre;" direction="ltr">&gt; &lt;</text><text x="32" y="43" font-family="Virgil, Segoe UI Emoji" font-size="20px" fill="#000000" text-anchor="middle" style="white-space: pre;" direction="ltr"></text><text x="32" y="68" font-family="Virgil, Segoe UI Emoji" font-size="20px" fill="#000000" text-anchor="middle" style="white-space: pre;" direction="ltr">^</text></g><g transform="translate(498.18603515625 58.490264892578125) rotate(0 58.5 12.5)"><text x="0" y="18" font-family="Virgil, Segoe UI Emoji" font-size="20px" fill="#000000" text-anchor="start" style="white-space: pre;" direction="ltr">Bug Master</text></g><a href="https://pingcap.feishu.cn/wiki/wikcnpqsQjEcggK08Na6g2FIY8n?table=tblbli3lHINHVBIZ&amp;view=vewKdivGB1"><g stroke-linecap="round" transform="translate(366.5733642578125 356.8484191894531) rotate(0 55.5 117.5)"><path d="M-1.79 -1.77 C38.51 -0.84, 79.62 -1.59, 111.25 -0.35 M0.04 -0.47 C32.19 0.26, 65.63 0.04, 110.07 0.51 M109.51 -1.66 C109.3 57.87, 107.69 117.16, 109.92 236.17 M111.79 0.77 C109.79 70.6, 109.77 143.18, 111.69 235.12 M110.09 234.09 C71.57 235.72, 30.51 236.59, 1.44 233.74 M110.12 235.12 C66.9 233.93, 24.41 234.83, 0.09 235.04 M0.09 234.09 C-0.75 173.45, -1.91 109.15, 0.28 0.3 M0.18 235.14 C-1.4 160.34, -0.29 83.38, 0.69 -0.82" stroke="#000000" stroke-width="1" fill="none"></path></g></a><g transform="translate(371.5733642578125 361.8484191894531) rotate(0 50.5 75)"><text x="0" y="18" font-family="Virgil, Segoe UI Emoji" font-size="20px" fill="#000000" text-anchor="start" style="white-space: pre;" direction="ltr">Bug Pool</text><text x="0" y="43" font-family="Virgil, Segoe UI Emoji" font-size="20px" fill="#000000" text-anchor="start" style="white-space: pre;" direction="ltr"></text><text x="0" y="68" font-family="Virgil, Segoe UI Emoji" font-size="20px" fill="#000000" text-anchor="start" style="white-space: pre;" direction="ltr">Bug 1</text><text x="0" y="93" font-family="Virgil, Segoe UI Emoji" font-size="20px" fill="#000000" text-anchor="start" style="white-space: pre;" direction="ltr">Bug 2</text><text x="0" y="118" font-family="Virgil, Segoe UI Emoji" font-size="20px" fill="#000000" text-anchor="start" style="white-space: pre;" direction="ltr">Bug 3</text><text x="0" y="143" font-family="Virgil, Segoe UI Emoji" font-size="20px" fill="#000000" text-anchor="start" style="white-space: pre;" direction="ltr">...</text></g><g stroke-linecap="round" transform="translate(16.77557373046875 215.56045532226562) rotate(0 56.5 42.5)"><path d="M0 1.04 C31.45 0.66, 63.1 1.55, 113.28 1.43 M-0.78 0.64 C29.04 -0.26, 56.24 0.08, 113.92 -0.97 M114.72 0.06 C110.52 31.74, 113.78 62.49, 111.18 86.53 M113.21 -0.19 C113.99 26.93, 112.9 53.52, 112.93 85.22 M111.85 84.02 C84.33 83.23, 52.96 84.63, 1.06 85.29 M113.29 85.74 C87.48 86.3, 62.33 85.3, 0.92 84.69 M-1.38 83.04 C2.19 65.78, -0.37 51.2, 1.75 -0.04 M0.87 84.42 C0.13 55.93, -0.67 27.71, -0.86 -0.27" stroke="#000000" stroke-width="1" fill="none"></path></g><g transform="translate(21.77557373046875 220.56045532226562) rotate(0 51.5 37.5)"><text x="51.5" y="18" font-family="Virgil, Segoe UI Emoji" font-size="20px" fill="#000000" text-anchor="middle" style="white-space: pre;" direction="ltr">GitHub </text><text x="51.5" y="43" font-family="Virgil, Segoe UI Emoji" font-size="20px" fill="#000000" text-anchor="middle" style="white-space: pre;" direction="ltr">New </text><text x="51.5" y="68" font-family="Virgil, Segoe UI Emoji" font-size="20px" fill="#000000" text-anchor="middle" style="white-space: pre;" direction="ltr">Issues</text></g><a href="https://pingcap.feishu.cn/wiki/wikcnJHaL65jzrzsYFwQjInUJvg#4IgnnS"><g stroke-linecap="round" transform="translate(10 63.54833984375) rotate(0 63 55)"><path d="M1.74 -1.17 C44.51 -0.92, 85.59 0.21, 124.28 -0.54 M0.74 0.87 C37.11 -0.24, 74.75 -0.64, 125.92 0.89 M126.75 -0.16 C123.73 39.4, 127.45 83.23, 126.18 108.95 M125.33 0.88 C126.88 25.65, 125.46 52.84, 125.56 110.28 M125 108.42 C91.02 109.9, 57.23 109.76, 1.55 109.38 M126.78 109.63 C95.13 110.27, 63.19 110.61, 0.57 109.54 M0.88 109.72 C-0.58 76.5, -0.43 40.32, 1.92 -0.99 M-0.33 109.7 C-0.85 86.7, 0.18 62.5, -0.67 -0.68" stroke="#000000" stroke-width="1" fill="none"></path></g></a><g transform="translate(15 68.54833984375) rotate(0 58 50)"><text x="58" y="18" font-family="Virgil, Segoe UI Emoji" font-size="20px" fill="#000000" text-anchor="middle" style="white-space: pre;" direction="ltr">Feishu</text><text x="58" y="43" font-family="Virgil, Segoe UI Emoji" font-size="20px" fill="#000000" text-anchor="middle" style="white-space: pre;" direction="ltr">Bug </text><text x="58" y="68" font-family="Virgil, Segoe UI Emoji" font-size="20px" fill="#000000" text-anchor="middle" style="white-space: pre;" direction="ltr">Notification</text><text x="58" y="93" font-family="Virgil, Segoe UI Emoji" font-size="20px" fill="#000000" text-anchor="middle" style="white-space: pre;" direction="ltr">Bots</text></g><g stroke-linecap="round" transform="translate(27.258758544921875 340.25164794921875) rotate(0 49.5 47)"><path d="M-1.41 -1.59 C26.23 -0.96, 52.08 1.99, 99.68 -0.61 M0.55 0.52 C32.03 1.15, 62.99 -0.32, 98.85 0.87 M100.78 -0.61 C97.73 35.31, 99.44 73.17, 97.27 93.26 M99.53 0.83 C98.89 31.32, 98.17 62.76, 99.28 93.69 M100.64 92.95 C73.19 94.21, 50.59 92.04, -0.85 94.71 M98.56 94.97 C65.86 93.17, 34.7 92.92, 0.07 94.67 M1.92 94.87 C-0.53 70.77, -1.67 48.63, -1.79 0.6 M-0.46 93.21 C-0.74 62.62, -0.94 31.71, 0.93 0.14" stroke="#000000" stroke-width="1" fill="none"></path></g><g transform="translate(32.258758544921875 349.75164794921875) rotate(0 44.5 37.5)"><text x="44.5" y="18" font-family="Virgil, Segoe UI Emoji" font-size="20px" fill="#000000" text-anchor="middle" style="white-space: pre;" direction="ltr">Dev </text><text x="44.5" y="43" font-family="Virgil, Segoe UI Emoji" font-size="20px" fill="#000000" text-anchor="middle" style="white-space: pre;" direction="ltr">Filed </text><text x="44.5" y="68" font-family="Virgil, Segoe UI Emoji" font-size="20px" fill="#000000" text-anchor="middle" style="white-space: pre;" direction="ltr">Issues</text></g><g transform="translate(20.5535888671875 10) rotate(0 61 12.5)"><text x="0" y="18" font-family="Virgil, Segoe UI Emoji" font-size="20px" fill="#000000" text-anchor="start" style="white-space: pre;" direction="ltr">Bug Sources</text></g><g stroke-linecap="round" transform="translate(602.60107421875 341.82965087890625) rotate(0 60.5 30)"><path d="M-1.95 -0.17 C24.18 1.93, 49.07 2.18, 121.88 0.57 M-0.42 0.65 C41.36 1.18, 84.25 0.13, 120.04 -0.67 M119.08 1.12 C119.02 22.76, 120 44.83, 119.51 60.01 M121.32 -0.25 C121.49 13.45, 119.95 26.42, 120.54 60.92 M122.63 59.09 C87.45 57.78, 56.42 58.62, 1.64 61.74 M120.35 59.48 C92.02 59.02, 63.48 58.4, -0.04 59.14 M0.82 59.14 C-0.42 36.98, 1.87 12.54, 1.54 0.28 M-0.63 60.3 C0.51 43.96, 0.34 29.03, 0.81 0.53" stroke="#000000" stroke-width="1" fill="none"></path></g><g transform="translate(607.60107421875 346.82965087890625) rotate(0 55.5 25)"><text x="55.5" y="18" font-family="Virgil, Segoe UI Emoji" font-size="20px" fill="#000000" text-anchor="middle" style="white-space: pre;" direction="ltr">Bug 1</text><text x="55.5" y="43" font-family="Virgil, Segoe UI Emoji" font-size="20px" fill="#000000" text-anchor="middle" style="white-space: pre;" direction="ltr">master PR</text></g><g stroke-linecap="round" transform="translate(727.3314819335938 254.74481201171875) rotate(0 19.5 30)"><path d="M28.61 3.17 C32.28 5.81, 36.48 12.89, 37.95 18.8 C39.42 24.71, 38.91 32.6, 37.41 38.61 C35.91 44.62, 32.44 51.44, 28.96 54.83 C25.48 58.22, 20.36 59.84, 16.52 58.94 C12.67 58.05, 8.7 54.1, 5.91 49.48 C3.11 44.86, -0.03 37.58, -0.24 31.22 C-0.45 24.87, 1.98 16.3, 4.65 11.35 C7.33 6.4, 11.86 2.68, 15.81 1.53 C19.76 0.39, 25.92 3.83, 28.35 4.48 C30.78 5.12, 30.49 5.2, 30.4 5.4 M15.36 1.36 C18.82 0.56, 24.64 2.91, 28.45 5.85 C32.26 8.79, 36.79 12.97, 38.2 19.01 C39.62 25.04, 38.67 35.77, 36.93 42.05 C35.18 48.32, 31.25 53.81, 27.73 56.67 C24.21 59.53, 19.78 60.55, 15.81 59.18 C11.83 57.81, 6.72 53.45, 3.86 48.47 C1 43.5, -1.69 35.8, -1.37 29.34 C-1.06 22.88, 2.65 14.77, 5.73 9.73 C8.82 4.69, 15.17 0.66, 17.15 -0.88 C19.13 -2.42, 17.72 0, 17.63 0.48" stroke="#000000" stroke-width="1" fill="none"></path></g><g transform="translate(732.3314819335938 264.74481201171875) rotate(0 14.5 20)"><text x="14.5" y="14" font-family="Virgil, Segoe UI Emoji" font-size="16px" fill="#000000" text-anchor="middle" style="white-space: pre;" direction="ltr">- -</text><text x="14.5" y="34" font-family="Virgil, Segoe UI Emoji" font-size="16px" fill="#000000" text-anchor="middle" style="white-space: pre;" direction="ltr">^</text></g><g stroke-linecap="round" transform="translate(727.025390625 424.2218017578125) rotate(0 19.5 30)"><path d="M19.94 -0.87 C23.71 -1.59, 28.47 1.62, 31.45 5.92 C34.43 10.22, 36.97 18.31, 37.84 24.94 C38.7 31.56, 38.54 40.05, 36.66 45.69 C34.79 51.32, 30.6 56.63, 26.59 58.74 C22.58 60.86, 16.44 60.54, 12.61 58.38 C8.77 56.22, 5.51 51.3, 3.6 45.79 C1.69 40.29, 0.57 31.64, 1.14 25.34 C1.72 19.03, 3.77 12.32, 7.04 7.96 C10.31 3.6, 18.09 0.34, 20.78 -0.81 C23.48 -1.96, 23.15 0.48, 23.22 1.09 M18.19 -1.14 C21.99 -1.8, 26.94 1.85, 30.29 6.24 C33.65 10.62, 37.27 18.71, 38.34 25.19 C39.4 31.66, 38.72 39.44, 36.68 45.08 C34.63 50.72, 29.91 56.72, 26.08 59.01 C22.25 61.3, 17.67 60.87, 13.7 58.85 C9.73 56.83, 4.63 52.26, 2.27 46.89 C-0.09 41.51, -1.3 33, -0.44 26.62 C0.43 20.23, 4.27 13.08, 7.47 8.58 C10.67 4.07, 16.98 0.74, 18.77 -0.42 C20.55 -1.58, 17.95 1.07, 18.19 1.61" stroke="#000000" stroke-width="1" fill="none"></path></g><g transform="translate(732.025390625 434.2218017578125) rotate(0 14.5 20)"><text x="14.5" y="14" font-family="Virgil, Segoe UI Emoji" font-size="16px" fill="#000000" text-anchor="middle" style="white-space: pre;" direction="ltr">- -</text><text x="14.5" y="34" font-family="Virgil, Segoe UI Emoji" font-size="16px" fill="#000000" text-anchor="middle" style="white-space: pre;" direction="ltr">^</text></g><g stroke-linecap="round" transform="translate(722.552734375 582.6123657226562) rotate(0 19.5 30)"><path d="M26.26 2.48 C29.99 4.28, 33.6 10.6, 35.8 16.11 C37.99 21.63, 40.02 29.32, 39.46 35.57 C38.9 41.81, 35.82 49.49, 32.46 53.59 C29.1 57.69, 23.7 60.33, 19.3 60.17 C14.9 60.02, 9.39 56.79, 6.07 52.68 C2.76 48.56, -0.16 41.82, -0.58 35.5 C-1 29.18, 1.36 20.24, 3.57 14.74 C5.77 9.25, 8.38 4.27, 12.65 2.53 C16.91 0.8, 26.06 3.87, 29.15 4.33 C32.23 4.79, 31.31 5.02, 31.13 5.31 M25.8 1.43 C29.6 3.31, 33.73 9.83, 36.04 15.88 C38.35 21.93, 40.29 31.48, 39.66 37.73 C39.02 43.98, 35.78 49.83, 32.24 53.39 C28.7 56.96, 22.5 59.28, 18.41 59.1 C14.31 58.92, 10.74 56.71, 7.66 52.32 C4.58 47.94, 0.49 38.95, -0.07 32.81 C-0.63 26.67, 1.97 20.6, 4.31 15.5 C6.66 10.39, 10.5 4.64, 14.01 2.19 C17.52 -0.26, 23.13 0.66, 25.37 0.78 C27.61 0.91, 27.49 2.48, 27.45 2.93" stroke="#000000" stroke-width="1" fill="none"></path></g><g transform="translate(727.552734375 592.6123657226562) rotate(0 14.5 20)"><text x="14.5" y="14" font-family="Virgil, Segoe UI Emoji" font-size="16px" fill="#000000" text-anchor="middle" style="white-space: pre;" direction="ltr">- -</text><text x="14.5" y="34" font-family="Virgil, Segoe UI Emoji" font-size="16px" fill="#000000" text-anchor="middle" style="white-space: pre;" direction="ltr">^</text></g><g stroke-linecap="round" transform="translate(599.484375 497.4810791015625) rotate(0 60.5 30)"><path d="M0.44 -1.94 C32.36 -1.55, 64.56 -1.39, 120.57 0.8 M-0.16 -0.54 C30.35 -0.21, 61.17 -0.54, 121.56 -0.1 M120.24 0.32 C119.41 13.5, 121.29 30.21, 119.57 58.59 M121.95 -0.61 C120.08 21.42, 121.54 41.85, 121.34 59.78 M120.68 60.49 C84.08 59.24, 50.98 59.94, 0.62 59.03 M120.07 60.92 C87.12 60.9, 51.74 61.88, 0.79 59.97 M1.06 59.34 C-0.45 41.36, -0.44 21.35, 1.14 -1.06 M-0.95 59.09 C0.8 43.23, 1.12 25.8, 0.09 0.08" stroke="#000000" stroke-width="1" fill="none"></path></g><g transform="translate(604.484375 502.4810791015625) rotate(0 55.5 25)"><text x="55.5" y="18" font-family="Virgil, Segoe UI Emoji" font-size="20px" fill="#000000" text-anchor="middle" style="white-space: pre;" direction="ltr">Bug 2</text><text x="55.5" y="43" font-family="Virgil, Segoe UI Emoji" font-size="20px" fill="#000000" text-anchor="middle" style="white-space: pre;" direction="ltr">master PR</text></g><g stroke-linecap="round" transform="translate(594.4883422851562 659.7012939453125) rotate(0 60.5 30)"><path d="M1.95 -0.41 C26.84 1.54, 53.49 -1.64, 121.29 -0.45 M0.37 0.82 C46.34 -1.42, 94.33 -1.04, 121.44 -0.22 M119.49 -0.13 C119.32 20.35, 119.76 39.25, 119.27 58.78 M121.71 -0.02 C121.24 21.11, 121.22 41.76, 120.27 59.75 M119.85 59.55 C90.7 60.38, 63.03 61.26, 1.7 61.86 M120.9 60.07 C95.61 60.04, 71.34 60.35, 0.5 59.49 M0.56 61.1 C-1.15 37.11, 1.15 13.51, 0.28 -0.62 M-0.3 59.25 C-0.44 43.31, 0.15 25.16, -0.81 -0.27" stroke="#000000" stroke-width="1" fill="none"></path></g><g transform="translate(599.4883422851562 664.7012939453125) rotate(0 55.5 25)"><text x="55.5" y="18" font-family="Virgil, Segoe UI Emoji" font-size="20px" fill="#000000" text-anchor="middle" style="white-space: pre;" direction="ltr">Bug 3</text><text x="55.5" y="43" font-family="Virgil, Segoe UI Emoji" font-size="20px" fill="#000000" text-anchor="middle" style="white-space: pre;" direction="ltr">master PR</text></g><a href="http://tirelease.pingcap.net/"><g stroke-linecap="round" transform="translate(979.2852172851562 162.56353759765625) rotate(0 74 45.872833251953125)"><path d="M-1.1 -0.14 C60.02 0.56, 115 3.38, 149.64 0.2 M0.14 0.3 C53.18 -0.74, 107.49 0.39, 147.4 -0.62 M147.72 0.28 C148.47 20.77, 146.59 42.47, 147.85 90.74 M148.11 -0.86 C147.69 29.76, 147.85 58.36, 148.63 92.68 M148.67 91.86 C90.51 89.71, 33.08 91.09, 0.47 92.21 M147.44 90.82 C110.29 91.6, 74 90.31, 0.64 92.69 M1.57 89.89 C0.28 59.82, -0.08 25.17, 1.42 1.02 M-0.87 92.59 C-0.03 68.68, 0.19 46.51, 0.02 0.72" stroke="#000000" stroke-width="1" fill="none"></path></g></a><g transform="translate(984.2852172851562 195.93637084960938) rotate(0 69 12.5)"><text x="69" y="18" font-family="Virgil, Segoe UI Emoji" font-size="20px" fill="#000000" text-anchor="middle" style="white-space: pre;" direction="ltr">TiRelease</text></g><g stroke-linecap="round" transform="translate(774.425537109375 342.145263671875) rotate(0 83 30)"><path d="M-0.77 1.63 C38.09 -1.28, 81.15 -2.29, 167.66 -0.03 M-0.22 0.53 C62.97 -1.71, 127.53 -1.11, 165.96 -0.38 M167.88 -0.28 C165.86 22.83, 165.63 45.93, 166.71 58.12 M165.34 0.15 C166.02 21.81, 166.19 44.6, 166.66 59.41 M164.46 58.3 C104.18 58.6, 39.62 61.49, 1.56 61.69 M166.27 59.59 C124.74 59.17, 83.57 58.9, -0.76 59.67 M-0.75 58.95 C-0.64 44.5, 2.07 33.08, 1.06 1.4 M-0.78 59.32 C0.43 39.95, 0.09 21.32, -0.31 -0.31" stroke="#000000" stroke-width="1" fill="none"></path></g><g transform="translate(779.425537109375 347.145263671875) rotate(0 78 25)"><text x="78" y="18" font-family="Virgil, Segoe UI Emoji" font-size="20px" fill="#000000" text-anchor="middle" style="white-space: pre;" direction="ltr">Bug 1 </text><text x="78" y="43" font-family="Virgil, Segoe UI Emoji" font-size="20px" fill="#000000" text-anchor="middle" style="white-space: pre;" direction="ltr">cherry-pick PRs</text></g><g stroke-linecap="round" transform="translate(774.95458984375 494.14361572265625) rotate(0 83 30)"><path d="M1.57 1.64 C49.07 1.27, 98.38 -0.97, 167.79 0.44 M-0.95 0.95 C59.06 -1.33, 116.87 -0.91, 165.02 0.82 M165.4 -0.87 C165.15 12.44, 167.54 28.93, 165.17 60.35 M165.81 -0.78 C166.59 17.07, 164.92 35.53, 165.7 60.93 M166.33 59.15 C128.09 59.67, 86.08 56.75, -1.78 58.27 M166.5 60.85 C118.62 58.54, 71.83 59.32, 0.34 60.88 M1.2 59.95 C-1.18 42.75, 0.11 22.39, -1.14 1.07 M0.35 60.1 C0.28 43.7, 0.56 28.46, -0.74 0.03" stroke="#000000" stroke-width="1" fill="none"></path></g><g transform="translate(779.95458984375 499.14361572265625) rotate(0 78 25)"><text x="78" y="18" font-family="Virgil, Segoe UI Emoji" font-size="20px" fill="#000000" text-anchor="middle" style="white-space: pre;" direction="ltr">Bug 2 </text><text x="78" y="43" font-family="Virgil, Segoe UI Emoji" font-size="20px" fill="#000000" text-anchor="middle" style="white-space: pre;" direction="ltr">cherry-pick PRs</text></g><g stroke-linecap="round" transform="translate(778.4686279296875 653.10888671875) rotate(0 83 30)"><path d="M1.54 -1.05 C41.01 1.53, 81.3 1.04, 167.82 1.73 M-0.37 -0.94 C52.08 -1.65, 103.61 -0.62, 165.59 0.65 M165.96 1.34 C165.69 12.31, 167.48 26.35, 166.72 58.11 M166.58 0.22 C166.18 16.1, 166.08 31.24, 166.54 60.93 M167.63 59.22 C100.31 61.58, 36.44 60.76, -1 61.37 M166.36 59.89 C118.98 61.64, 70.38 61.49, -0.18 60.03 M1.22 58.51 C-0.45 36.72, 0.11 12.45, 1.47 -0.95 M-0.45 60.28 C0.85 47.46, -0.62 35.54, -0.44 0.7" stroke="#000000" stroke-width="1" fill="none"></path></g><g transform="translate(783.4686279296875 658.10888671875) rotate(0 78 25)"><text x="78" y="18" font-family="Virgil, Segoe UI Emoji" font-size="20px" fill="#000000" text-anchor="middle" style="white-space: pre;" direction="ltr">Bug 3 </text><text x="78" y="43" font-family="Virgil, Segoe UI Emoji" font-size="20px" fill="#000000" text-anchor="middle" style="white-space: pre;" direction="ltr">cherry-pick PRs</text></g><g stroke-linecap="round"><g transform="translate(144.7615741342306 252.0366978861133) rotate(0 179.50067219779828 -63.72537734544474)"><path d="M-0.98 0.81 C58.72 -20.72, 297.73 -106.63, 357.78 -128.26 M0.71 0.19 C60.8 -21.24, 300.28 -105.49, 359.98 -126.88" stroke="#c92a2a" stroke-width="1" fill="none"></path></g><g transform="translate(144.7615741342306 252.0366978861133) rotate(0 179.50067219779828 -63.72537734544474)"><path d="M338.19 -109.43 C342.39 -111.73, 347.44 -118.15, 358.78 -127.75 M337.06 -108.69 C344.45 -113.64, 352.83 -120.3, 360.85 -127.44" stroke="#c92a2a" stroke-width="1" fill="none"></path></g><g transform="translate(144.7615741342306 252.0366978861133) rotate(0 179.50067219779828 -63.72537734544474)"><path d="M331.33 -128.77 C337.51 -125.83, 344.4 -127.07, 358.78 -127.75 M330.2 -128.03 C339.77 -126.49, 350.45 -126.67, 360.85 -127.44" stroke="#c92a2a" stroke-width="1" fill="none"></path></g></g><g stroke-linecap="round"><g transform="translate(148.02434249818327 97.82320109403895) rotate(0 182.3228849977255 2.8915430101322954)"><path d="M-0.83 0.59 C60.19 1.23, 304.37 4.13, 365.48 4.79 M0.93 -0.14 C61.84 0.55, 303.75 5.01, 364.45 5.92" stroke="#c92a2a" stroke-width="1" fill="none"></path></g><g transform="translate(148.02434249818327 97.82320109403895) rotate(0 182.3228849977255 2.8915430101322954)"><path d="M337.08 15.45 C341.63 13.81, 348.15 10.16, 365.31 4.89 M336.6 16.27 C345.55 12.37, 357.48 8.58, 363.93 6.1" stroke="#c92a2a" stroke-width="1" fill="none"></path></g><g transform="translate(148.02434249818327 97.82320109403895) rotate(0 182.3228849977255 2.8915430101322954)"><path d="M337.43 -5.06 C342.06 -1.71, 348.5 -0.36, 365.31 4.89 M336.94 -4.25 C345.67 -0.61, 357.46 3.13, 363.93 6.1" stroke="#c92a2a" stroke-width="1" fill="none"></path></g></g><g stroke-linecap="round"><g transform="translate(139.94186401367188 371.77841709174675) rotate(0 184.00068115293982 -113.1317922807927)"><path d="M-0.67 -0.14 C60.96 -37.59, 307.19 -186.72, 368.67 -224.25 M1.17 -1.26 C62.84 -39.11, 307.16 -188.95, 368.26 -226.12" stroke="#c92a2a" stroke-width="1" fill="none"></path></g><g transform="translate(139.94186401367188 371.77841709174675) rotate(0 184.00068115293982 -113.1317922807927)"><path d="M349.32 -200.98 C354.1 -206.49, 356.16 -210.32, 368.6 -224.62 M349.75 -201.74 C355.73 -210.27, 363.2 -218.43, 367.92 -226.75" stroke="#c92a2a" stroke-width="1" fill="none"></path></g><g transform="translate(139.94186401367188 371.77841709174675) rotate(0 184.00068115293982 -113.1317922807927)"><path d="M338.62 -218.49 C345.67 -220.33, 349.92 -220.56, 368.6 -224.62 M339.05 -219.25 C348.86 -221.55, 360.12 -223.51, 367.92 -226.75" stroke="#c92a2a" stroke-width="1" fill="none"></path></g></g><g stroke-linecap="round"><g transform="translate(524.7533664432838 197.9657099930679) rotate(0 -50.46028339600883 73.28905432857488)"><path d="M0.6 -0.28 C-16.16 24.24, -83.87 122.02, -100.82 146.41 M-0.55 -1.47 C-17.4 23.33, -84.65 123.24, -101.52 148.04" stroke="#1864ab" stroke-width="1" fill="none"></path></g><g transform="translate(524.7533664432838 197.9657099930679) rotate(0 -50.46028339600883 73.28905432857488)"><path d="M-94.69 119.72 C-96.13 127.42, -98.7 136.04, -102.47 146.77 M-93.32 118.41 C-95.75 125.2, -97.44 132.07, -102.37 148.68" stroke="#1864ab" stroke-width="1" fill="none"></path></g><g transform="translate(524.7533664432838 197.9657099930679) rotate(0 -50.46028339600883 73.28905432857488)"><path d="M-77.69 131.22 C-83.8 135.8, -91.11 141.21, -102.47 146.77 M-76.32 129.9 C-82.46 134.32, -87.79 138.73, -102.37 148.68" stroke="#1864ab" stroke-width="1" fill="none"></path></g></g><g stroke-linecap="round"><g transform="translate(727.2296142578125 308.2608337402344) rotate(0 -32.45642337262166 15.55752697885032)"><path d="M-0.05 -1.14 C-10.69 4.37, -53.74 26.81, -64.47 32.26 M-1.54 0.87 C-12.19 6.12, -54.35 25.23, -64.86 30.56" stroke="#e67700" stroke-width="1" fill="none"></path></g><g transform="translate(727.2296142578125 308.2608337402344) rotate(0 -32.45642337262166 15.55752697885032)"><path d="M-45.74 10.93 C-47.84 16.3, -54.28 21.23, -64.98 29.05 M-43.19 9.22 C-48.74 15.07, -54.52 19.83, -64.64 30.33" stroke="#e67700" stroke-width="1" fill="none"></path></g><g transform="translate(727.2296142578125 308.2608337402344) rotate(0 -32.45642337262166 15.55752697885032)"><path d="M-36.91 29.45 C-41.06 30.23, -49.69 30.58, -64.98 29.05 M-34.36 27.74 C-42.27 28.5, -50.44 28.26, -64.64 30.33" stroke="#e67700" stroke-width="1" fill="none"></path></g></g><g stroke-linecap="round"><g transform="translate(767.5509033203125 304.6367492675781) rotate(0 36.87599719413083 15.524871981884303)"><path d="M0.48 -1.06 C12.8 4.12, 62.25 25.23, 74.48 30.51 M-0.72 0.99 C11.45 6.44, 61.62 26.94, 73.93 32.11" stroke="#e67700" stroke-width="1" fill="none"></path></g><g transform="translate(767.5509033203125 304.6367492675781) rotate(0 36.87599719413083 15.524871981884303)"><path d="M42.19 32.08 C54.58 31.39, 65.16 32.43, 73.1 31.06 M44.04 31.17 C49.85 31.07, 57.06 31.19, 73.6 32.39" stroke="#e67700" stroke-width="1" fill="none"></path></g><g transform="translate(767.5509033203125 304.6367492675781) rotate(0 36.87599719413083 15.524871981884303)"><path d="M50.04 13.13 C59.6 19.05, 67.46 26.68, 73.1 31.06 M51.89 12.21 C55.83 16.29, 61.28 20.66, 73.6 32.39" stroke="#e67700" stroke-width="1" fill="none"></path></g></g><g stroke-linecap="round"><g transform="translate(722.231689453125 472.19708251953125) rotate(0 -28.506784080704733 10.569643852631543)"><path d="M-0.89 1.05 C-10.43 4.6, -47.71 17.63, -57.28 20.58 M0.84 0.56 C-8.79 3.83, -47.84 15.73, -57.85 18.89" stroke="#e67700" stroke-width="1" fill="none"></path></g><g transform="translate(722.231689453125 472.19708251953125) rotate(0 -28.506784080704733 10.569643852631543)"><path d="M-32.21 1.94 C-39.71 5.39, -49.82 10.14, -57 18.28 M-34.37 0.29 C-42.1 7.1, -49.84 13, -58.05 18.49" stroke="#e67700" stroke-width="1" fill="none"></path></g><g transform="translate(722.231689453125 472.19708251953125) rotate(0 -28.506784080704733 10.569643852631543)"><path d="M-26.13 21.54 C-35.32 19.17, -47.21 18.14, -57 18.28 M-28.29 19.89 C-38.01 20.27, -47.75 19.75, -58.05 18.49" stroke="#e67700" stroke-width="1" fill="none"></path></g></g><g stroke-linecap="round"><g transform="translate(772.8609395409599 464.3550457155418) rotate(0 26.474850787531636 12.278414948000886)"><path d="M-0.64 -0.62 C8.29 3.41, 44.66 20.82, 53.59 25.18 M1.23 1.67 C10.06 5.28, 44.54 19.79, 53.03 23.48" stroke="#e67700" stroke-width="1" fill="none"></path></g><g transform="translate(772.8609395409599 464.3550457155418) rotate(0 26.474850787531636 12.278414948000886)"><path d="M22.95 23.16 C34.09 22.68, 43.42 23.06, 53.88 23.66 M24.39 21.82 C35.64 21.65, 46.26 24.05, 52.68 23.02" stroke="#e67700" stroke-width="1" fill="none"></path></g><g transform="translate(772.8609395409599 464.3550457155418) rotate(0 26.474850787531636 12.278414948000886)"><path d="M30.75 4.85 C39.7 9.84, 46.68 15.72, 53.88 23.66 M32.2 3.52 C40.27 10.36, 47.9 19.77, 52.68 23.02" stroke="#e67700" stroke-width="1" fill="none"></path></g></g><g stroke-linecap="round"><g transform="translate(716.9212646484375 629.7990112304688) rotate(0 -19.91581378877163 10.832924516121864)"><path d="M0.35 0.02 C-6.26 3.94, -33.75 18.78, -40.18 22.68 M-0.93 -1.01 C-7.12 2.6, -31.73 16.93, -37.98 20.7" stroke="#e67700" stroke-width="1" fill="none"></path></g><g transform="translate(716.9212646484375 629.7990112304688) rotate(0 -19.91581378877163 10.832924516121864)"><path d="M-23.61 1.62 C-26.94 9.34, -29.31 11.71, -38.6 22.62 M-23.71 2.86 C-25.95 7.4, -29.14 11.68, -38.39 21.51" stroke="#e67700" stroke-width="1" fill="none"></path></g><g transform="translate(716.9212646484375 629.7990112304688) rotate(0 -19.91581378877163 10.832924516121864)"><path d="M-15.76 14.92 C-20.97 19.3, -25.33 18.3, -38.6 22.62 M-15.85 16.15 C-19.76 17.8, -24.68 19.16, -38.39 21.51" stroke="#e67700" stroke-width="1" fill="none"></path></g></g><g stroke-linecap="round"><g transform="translate(769.8794002487602 621.4576795975565) rotate(0 27.811553460039818 12.406060254509555)"><path d="M-0.28 -1.08 C9.11 3.1, 46.39 20.44, 55.91 24.95 M1.77 0.97 C11.02 5.27, 45.69 21.51, 54.79 25.89" stroke="#e67700" stroke-width="1" fill="none"></path></g><g transform="translate(769.8794002487602 621.4576795975565) rotate(0 27.811553460039818 12.406060254509555)"><path d="M23.12 22.53 C30.81 24.81, 40.34 25.76, 53.56 25.96 M25.28 22.96 C36.38 23.4, 47.59 25.92, 55.05 25.95" stroke="#e67700" stroke-width="1" fill="none"></path></g><g transform="translate(769.8794002487602 621.4576795975565) rotate(0 27.811553460039818 12.406060254509555)"><path d="M31.92 3.99 C37.28 11.09, 44.53 16.89, 53.56 25.96 M34.07 4.42 C41.74 12.05, 49.53 21.79, 55.05 25.95" stroke="#e67700" stroke-width="1" fill="none"></path></g></g><g stroke-linecap="round"><g transform="translate(593.9147338867188 146.26840209960938) rotate(0 189.92513790257738 29.53153499662875)"><path d="M-0.13 -0.86 C63.4 9.05, 318.09 49.69, 381.51 59.93 M-1.66 1.3 C61.7 10.81, 316.56 48.47, 380.64 58.07" stroke="#862e9c" stroke-width="1" fill="none"></path></g><g transform="translate(593.9147338867188 146.26840209960938) rotate(0 189.92513790257738 29.53153499662875)"><path d="M349.81 64.32 C361.67 60.55, 372.37 61.17, 380.81 58.55 M352.24 63.75 C358.37 62.04, 363.72 61.42, 381.33 58.18" stroke="#862e9c" stroke-width="1" fill="none"></path></g><g transform="translate(593.9147338867188 146.26840209960938) rotate(0 189.92513790257738 29.53153499662875)"><path d="M352.83 44.02 C363.77 46.89, 373.49 54.14, 380.81 58.55 M355.26 43.45 C360.59 46.19, 365.28 50, 381.33 58.18" stroke="#862e9c" stroke-width="1" fill="none"></path></g></g><g stroke-linecap="round"><g transform="translate(1027.086435354714 268.52216873212717) rotate(0 -38.22811426001067 42.11956520533556)"><path d="M0.63 0.49 C-12.21 14.4, -63.46 69.55, -76.18 83.46 M-0.5 -0.29 C-13.56 13.74, -64.48 70.3, -77.08 84.53" stroke="#5c940d" stroke-width="1" fill="none"></path></g><g transform="translate(1027.086435354714 268.52216873212717) rotate(0 -38.22811426001067 42.11956520533556)"><path d="M-65.11 56.82 C-71.52 67.96, -74.79 76.08, -78.71 83.01 M-65.55 56.52 C-68.37 63.15, -72.13 69.42, -77.99 85.47" stroke="#5c940d" stroke-width="1" fill="none"></path></g><g transform="translate(1027.086435354714 268.52216873212717) rotate(0 -38.22811426001067 42.11956520533556)"><path d="M-49.82 70.5 C-61.87 76.69, -70.77 79.76, -78.71 83.01 M-50.25 70.21 C-56.7 73.5, -64.17 76.45, -77.99 85.47" stroke="#5c940d" stroke-width="1" fill="none"></path></g></g><g stroke-linecap="round"><g transform="translate(1048.926905660806 267.1095654372778) rotate(0 -51.32443988698583 111.48945806503451)"><path d="M0.22 -0.45 C-16.61 36.85, -84.81 187.46, -102.02 224.71 M-1.13 -1.73 C-18.01 35.13, -86.28 185.31, -102.87 222.91" stroke="#5c940d" stroke-width="1" fill="none"></path></g><g transform="translate(1048.926905660806 267.1095654372778) rotate(0 -51.32443988698583 111.48945806503451)"><path d="M-101.43 193.33 C-99.9 197.97, -103.09 207.76, -101.1 223.3 M-100.88 192.39 C-101.79 204.22, -101.43 213.63, -103.58 223.49" stroke="#5c940d" stroke-width="1" fill="none"></path></g><g transform="translate(1048.926905660806 267.1095654372778) rotate(0 -51.32443988698583 111.48945806503451)"><path d="M-82.71 201.73 C-85.24 204.61, -92.44 212.61, -101.1 223.3 M-82.16 200.8 C-89.49 209.67, -95.58 216.18, -103.58 223.49" stroke="#5c940d" stroke-width="1" fill="none"></path></g></g><g stroke-linecap="round"><g transform="translate(1077.2915504923267 263.8807373046875) rotate(0 -63.83930970324616 209.10697544384482)"><path d="M0.87 0.7 C-20.41 70.41, -106.2 348.5, -127.36 418.19 M-0.14 0.03 C-21.64 69.37, -107.5 346.8, -128.55 416.31" stroke="#5c940d" stroke-width="1" fill="none"></path></g><g transform="translate(1077.2915504923267 263.8807373046875) rotate(0 -63.83930970324616 209.10697544384482)"><path d="M-128.92 385.58 C-128.83 397.47, -127.23 406.12, -128.19 417.99 M-130.75 386.43 C-128.39 396.44, -128.72 405.9, -129.27 416.99" stroke="#5c940d" stroke-width="1" fill="none"></path></g><g transform="translate(1077.2915504923267 263.8807373046875) rotate(0 -63.83930970324616 209.10697544384482)"><path d="M-109.3 391.59 C-115.62 401.66, -120.44 408.34, -128.19 417.99 M-111.13 392.45 C-115.1 400.72, -121.72 408.26, -129.27 416.99" stroke="#5c940d" stroke-width="1" fill="none"></path></g></g><g transform="translate(13.12493896484375 498.7884521484375) rotate(0 38 12.5)"><text x="0" y="18" font-family="Virgil, Segoe UI Emoji" font-size="20px" fill="#000000" text-anchor="start" style="white-space: pre;" direction="ltr">Legends</text></g><g stroke-linecap="round"><g transform="translate(13.1500244140625 560.8162229504063) rotate(0 20.403795643006475 -0.07790461139217086)"><path d="M-0.03 1.14 C6.97 1.24, 35.49 0.72, 42.31 0.66 M-1.5 0.7 C5.34 0.41, 34.07 -0.97, 41.53 -1.31" stroke="#c92a2a" stroke-width="1" fill="none"></path></g><g transform="translate(13.1500244140625 560.8162229504063) rotate(0 20.403795643006475 -0.07790461139217086)"><path d="M24.07 7.32 C28.94 2.37, 35.46 2.96, 42.21 -1.68 M21.41 7.35 C27.07 5.33, 32.97 3.25, 41.86 -0.87" stroke="#c92a2a" stroke-width="1" fill="none"></path></g><g transform="translate(13.1500244140625 560.8162229504063) rotate(0 20.403795643006475 -0.07790461139217086)"><path d="M23.4 -7.02 C28.49 -7.3, 35.23 -2.04, 42.21 -1.68 M20.74 -6.99 C26.56 -5.19, 32.63 -3.43, 41.86 -0.87" stroke="#c92a2a" stroke-width="1" fill="none"></path></g></g><g transform="translate(70.32440185546875 549.80712890625) rotate(0 86 10)"><text x="0" y="14" font-family="Virgil, Segoe UI Emoji" font-size="16px" fill="#000000" text-anchor="start" style="white-space: pre;" direction="ltr">Analyze/adjust labels</text></g><g stroke-linecap="round"><g transform="translate(13.750946044921875 599.6885374035314) rotate(0 20.84181400008967 0.12340431011170949)"><path d="M0.57 -1.16 C7.62 -1.08, 35.19 -0.2, 42.28 0.05 M-0.59 0.84 C6.33 1.14, 34.23 1.28, 41.48 1.41" stroke="#1864ab" stroke-width="1" fill="none"></path></g><g transform="translate(13.750946044921875 599.6885374035314) rotate(0 20.84181400008967 0.12340431011170949)"><path d="M19.73 8.85 C27.03 8, 33.37 4.58, 43.42 1.13 M22.28 7.87 C26.45 7.46, 31.32 5.95, 42.41 1.59" stroke="#1864ab" stroke-width="1" fill="none"></path></g><g transform="translate(13.750946044921875 599.6885374035314) rotate(0 20.84181400008967 0.12340431011170949)"><path d="M19.89 -5.51 C27.08 -2.09, 33.38 -1.25, 43.42 1.13 M22.44 -6.49 C26.45 -3.62, 31.27 -1.85, 42.41 1.59" stroke="#1864ab" stroke-width="1" fill="none"></path></g></g><g transform="translate(70.92532348632812 588.679443359375) rotate(0 87.5 10)"><text x="0" y="14" font-family="Virgil, Segoe UI Emoji" font-size="16px" fill="#000000" text-anchor="start" style="white-space: pre;" direction="ltr">Enqueue/check status</text></g><g stroke-linecap="round"><g transform="translate(492.45862098634245 416.26064756393384) rotate(0 115.63104079396783 -70.14881673054879)"><path d="M-0.69 0.58 C38.02 -22.82, 193.33 -117.43, 231.95 -140.87" stroke="#1864ab" stroke-width="1.5" fill="none" stroke-dasharray="8 9"></path></g><g transform="translate(492.45862098634245 416.26064756393384) rotate(0 115.63104079396783 -70.14881673054879)"><path d="M214.16 -117.7 C216.71 -125.64, 223.21 -129.44, 232.92 -140.09" stroke="#1864ab" stroke-width="1.5" fill="none"></path></g><g transform="translate(492.45862098634245 416.26064756393384) rotate(0 115.63104079396783 -70.14881673054879)"><path d="M203.49 -135.24 C208.92 -138.26, 218.38 -137.2, 232.92 -140.09" stroke="#1864ab" stroke-width="1.5" fill="none"></path></g></g><g stroke-linecap="round"><g transform="translate(489.3495422184467 443.35570905557506) rotate(0 116.12560232635616 1.7055475248093899)"><path d="M0.24 0.7 C38.84 1.22, 193.68 2.43, 232.01 2.71" stroke="#1864ab" stroke-width="1.5" fill="none" stroke-dasharray="8 9"></path></g><g transform="translate(489.3495422184467 443.35570905557506) rotate(0 116.12560232635616 1.7055475248093899)"><path d="M204.9 14.5 C213.41 8.04, 222.36 6.75, 233.16 4.12" stroke="#1864ab" stroke-width="1.5" fill="none"></path></g><g transform="translate(489.3495422184467 443.35570905557506) rotate(0 116.12560232635616 1.7055475248093899)"><path d="M205.06 -6.02 C213.44 -5.59, 222.34 0, 233.16 4.12" stroke="#1864ab" stroke-width="1.5" fill="none"></path></g></g><g stroke-linecap="round"><g transform="translate(489.7736205875873 469.51802035097285) rotate(0 111.11042761773786 66.9331516650256)"><path d="M0.5 0.62 C37.39 22.88, 184.99 111.19, 221.72 133.25" stroke="#1864ab" stroke-width="1.5" fill="none" stroke-dasharray="8 9"></path></g><g transform="translate(489.7736205875873 469.51802035097285) rotate(0 111.11042761773786 66.9331516650256)"><path d="M193.3 129.52 C201.19 129.84, 210.53 131.69, 220.48 135.02" stroke="#1864ab" stroke-width="1.5" fill="none"></path></g><g transform="translate(489.7736205875873 469.51802035097285) rotate(0 111.11042761773786 66.9331516650256)"><path d="M203.85 111.92 C208.19 118.14, 214.02 125.83, 220.48 135.02" stroke="#1864ab" stroke-width="1.5" fill="none"></path></g></g><g stroke-linecap="round"><g transform="translate(16.0194091796875 635.3219602550939) rotate(0 19.428277015686064 -0.12401183042481989)"><path d="M-0.57 -0.5 C5.96 -0.49, 32.79 -0.12, 39.43 0.25" stroke="#1864ab" stroke-width="1.5" fill="none" stroke-dasharray="8 9"></path></g><g transform="translate(16.0194091796875 635.3219602550939) rotate(0 19.428277015686064 -0.12401183042481989)"><path d="M20.26 7.54 C26.32 5.5, 34.56 1.2, 38.94 0.12" stroke="#1864ab" stroke-width="1.5" fill="none"></path></g><g transform="translate(16.0194091796875 635.3219602550939) rotate(0 19.428277015686064 -0.12401183042481989)"><path d="M20.68 -5.67 C26.63 -3.52, 34.74 -3.64, 38.94 0.12" stroke="#1864ab" stroke-width="1.5" fill="none"></path></g></g><g transform="translate(69.85336303710938 625.0911254882812) rotate(0 87 10)"><text x="0" y="14" font-family="Virgil, Segoe UI Emoji" font-size="16px" fill="#000000" text-anchor="start" style="white-space: pre;" direction="ltr">Assign/update status</text></g><g stroke-linecap="round"><g transform="translate(16.484588623046875 669.8980710949377) rotate(0 20.759015560150203 0.6155138885603151)"><path d="M-0.48 -0.04 C6.4 -0.01, 34.8 0.47, 42 0.71 M1.47 -1.1 C8.12 -0.9, 34.25 2.23, 41.05 2.34" stroke="#e67700" stroke-width="1" fill="none"></path></g><g transform="translate(16.484588623046875 669.8980710949377) rotate(0 20.759015560150203 0.6155138885603151)"><path d="M20.78 8.07 C28.42 7.21, 36.94 5.85, 40.64 0.98 M21.76 9.01 C26.1 6.18, 32.84 4.37, 40.63 1.49" stroke="#e67700" stroke-width="1" fill="none"></path></g><g transform="translate(16.484588623046875 669.8980710949377) rotate(0 20.759015560150203 0.6155138885603151)"><path d="M21.83 -6.26 C29.15 -1.92, 37.29 1.91, 40.64 0.98 M22.81 -5.31 C26.91 -4.08, 33.35 -1.81, 40.63 1.49" stroke="#e67700" stroke-width="1" fill="none"></path></g></g><g transform="translate(73.65896606445312 658.8889770507812) rotate(0 36.5 10)"><text x="0" y="14" font-family="Virgil, Segoe UI Emoji" font-size="16px" fill="#000000" text-anchor="start" style="white-space: pre;" direction="ltr">Fix/merge</text></g><g stroke-linecap="round"><g transform="translate(13.973480224609375 706.7672727550939) rotate(0 21.262221977044874 0.1232154490484163)"><path d="M-0.36 -1.12 C6.33 -1.17, 33.78 -0.11, 40.8 0.03 M1.66 0.91 C8.63 1, 36.35 1.39, 42.88 1.37" stroke="#862e9c" stroke-width="1" fill="none"></path></g><g transform="translate(13.973480224609375 706.7672727550939) rotate(0 21.262221977044874 0.1232154490484163)"><path d="M21.24 6.42 C29.5 5.53, 36.13 3.43, 43.34 1.28 M23.93 8.04 C30.27 5.24, 36.49 2.8, 43.5 1.3" stroke="#862e9c" stroke-width="1" fill="none"></path></g><g transform="translate(13.973480224609375 706.7672727550939) rotate(0 21.262221977044874 0.1232154490484163)"><path d="M21.33 -7.94 C29.61 -3.69, 36.2 -0.66, 43.34 1.28 M24.03 -6.33 C30.35 -3.95, 36.53 -1.23, 43.5 1.3" stroke="#862e9c" stroke-width="1" fill="none"></path></g></g><g transform="translate(71.14785766601562 695.7581787109375) rotate(0 67.5 10)"><text x="0" y="14" font-family="Virgil, Segoe UI Emoji" font-size="16px" fill="#000000" text-anchor="start" style="white-space: pre;" direction="ltr">Immediate triage</text></g><g transform="translate(721.3091430664062 209.07669067382812) rotate(0 24.5 12.5)"><text x="0" y="18" font-family="Virgil, Segoe UI Emoji" font-size="20px" fill="#000000" text-anchor="start" style="white-space: pre;" direction="ltr">Devs</text></g><g stroke-linecap="round"><g transform="translate(16.013397216796875 742.4304197277502) rotate(0 20.885022732173127 0.27360584292404155)"><path d="M0.8 -0.8 C7.73 -0.44, 35.17 0.85, 42.01 1.04 M-0.24 1.4 C6.5 1.49, 34.21 -0.87, 41.08 -0.85" stroke="#5c940d" stroke-width="1" fill="none"></path></g><g transform="translate(16.013397216796875 742.4304197277502) rotate(0 20.885022732173127 0.27360584292404155)"><path d="M20.37 7.28 C29.02 4.14, 34.31 3.02, 43.06 -0.67 M20.99 6.47 C26.79 4.67, 29.34 3.65, 41.26 -0.01" stroke="#5c940d" stroke-width="1" fill="none"></path></g><g transform="translate(16.013397216796875 742.4304197277502) rotate(0 20.885022732173127 0.27360584292404155)"><path d="M19.71 -7.07 C28.44 -5.4, 33.95 -1.71, 43.06 -0.67 M20.33 -7.88 C26.17 -6.62, 28.86 -4.58, 41.26 -0.01" stroke="#5c940d" stroke-width="1" fill="none"></path></g></g><g transform="translate(73.18777465820312 731.4213256835938) rotate(0 30 10)"><text x="0" y="14" font-family="Virgil, Segoe UI Emoji" font-size="16px" fill="#000000" text-anchor="start" style="white-space: pre;" direction="ltr">Approve</text></g></svg>
